<svg width="95" height="35" viewBox="0 0 95 35" fill="none" xmlns="http://www.w3.org/2000/svg">
<g clip-path="url(#clip0_4_3)">
<path d="M48.6556 11.5928L53.1393 11.303C53.2416 12.036 53.4291 12.5816 53.736 12.9737C54.2304 13.5874 54.9123 13.8943 55.8159 13.8943C56.4808 13.8943 57.0093 13.7409 57.3673 13.417C57.7082 13.1612 57.9128 12.7521 57.9128 12.3259C57.9128 11.9167 57.7253 11.5246 57.4014 11.2689C57.0604 10.962 56.2591 10.6551 54.9976 10.3824C52.9347 9.92207 51.4515 9.30833 50.5821 8.52411C49.7126 7.79104 49.2182 6.717 49.2523 5.57477C49.2523 4.79055 49.491 4.00633 49.9342 3.3585C50.4457 2.62543 51.1447 2.04579 51.98 1.72187C52.8836 1.32976 54.1452 1.12518 55.7306 1.12518C57.6741 1.12518 59.1573 1.4832 60.1802 2.21627C61.2031 2.93229 61.8169 4.09157 62.0044 5.67706L57.5718 5.93278C57.4525 5.25085 57.2138 4.75645 56.8217 4.43254C56.4296 4.10862 55.9182 3.95519 55.2533 3.95519C54.7077 3.95519 54.2986 4.07453 54.0258 4.29615C53.7701 4.50073 53.5996 4.8076 53.6167 5.14856C53.6167 5.40429 53.753 5.64296 53.9576 5.7964C54.1792 6.00097 54.7077 6.18851 55.5431 6.35899C57.6059 6.80224 59.0721 7.2455 59.9756 7.7058C60.8792 8.1661 61.527 8.72869 61.9191 9.39357C62.3283 10.0755 62.5329 10.8597 62.5158 11.661C62.5158 12.6157 62.2431 13.5704 61.6975 14.3717C61.1349 15.207 60.3507 15.8548 59.4301 16.247C58.4584 16.6732 57.2309 16.8948 55.7647 16.8948C53.1734 16.8948 51.3833 16.4004 50.3775 15.3945C49.3717 14.3887 48.775 13.1271 48.6556 11.5928ZM1.07404 16.6391V1.39795H8.93327C10.3824 1.39795 11.5075 1.51729 12.2747 1.77302C13.0248 2.01169 13.6897 2.50609 14.133 3.17097C14.6274 3.90404 14.866 4.75645 14.849 5.64296C14.9001 7.14321 14.133 8.57526 12.8203 9.32538C12.3088 9.6152 11.7462 9.81978 11.1666 9.92207C11.5928 10.0414 12.019 10.246 12.3941 10.4847C12.6839 10.7233 12.9226 10.9961 13.1442 11.2859C13.3999 11.5757 13.6215 11.8997 13.8091 12.2406L16.0935 16.6561H10.7404L8.21724 11.9679C7.89333 11.3712 7.62056 10.9791 7.36483 10.7915C7.02387 10.5529 6.61471 10.4335 6.20555 10.4335H5.7964V16.622H1.07404V16.6391ZM5.7964 7.56941H7.79104C8.21724 7.53532 8.6264 7.46712 9.03556 7.36483C9.34243 7.31369 9.6152 7.14321 9.80273 6.88748C10.263 6.27375 10.1948 5.40429 9.63225 4.87579C9.32538 4.62007 8.72869 4.48368 7.87628 4.48368H5.7964V7.56941ZM0 29.698L4.48368 29.4082C4.58597 30.1413 4.7735 30.6868 5.08037 31.0789C5.55772 31.6926 6.2567 32.0166 7.16025 32.0166C7.82513 32.0166 8.35363 31.8631 8.71164 31.5392C9.05261 31.2664 9.25718 30.8743 9.25718 30.4481C9.25718 30.039 9.06965 29.6469 8.74574 29.3911C8.40477 29.0843 7.60351 28.7774 6.32489 28.5046C4.26206 28.0443 2.77886 27.4306 1.9094 26.6464C1.03994 25.9133 0.545543 24.8393 0.57964 23.697C0.57964 22.9128 0.818315 22.1286 1.26157 21.4808C1.77302 20.7477 2.47199 20.168 3.30735 19.8441C4.21091 19.452 5.47248 19.2474 7.05796 19.2474C9.00146 19.2474 10.4847 19.6055 11.5075 20.3385C12.5304 21.0716 13.1271 22.2138 13.3147 23.7993L8.88212 24.055C8.76279 23.3731 8.52411 22.8787 8.132 22.5548C7.75694 22.2309 7.22845 22.0775 6.56357 22.0945C6.01802 22.0945 5.60886 22.2138 5.33609 22.4525C5.06332 22.6571 4.90989 22.964 4.92694 23.3049C4.92694 23.5606 5.06332 23.7993 5.2679 23.9528C5.48953 24.1573 6.01802 24.3449 6.85339 24.5153C8.91622 24.9586 10.3824 25.4019 11.2859 25.8622C12.1895 26.3225 12.8373 26.885 13.2294 27.5499C13.6386 28.2319 13.8432 29.0161 13.8432 29.8003C13.8432 30.755 13.5533 31.6926 13.0248 32.4939C12.4623 33.3293 11.678 33.9771 10.7574 34.3692C9.78568 34.7954 8.55821 35.017 7.09206 35.017C4.50073 35.017 2.71067 34.5227 1.70482 33.5168C0.698977 32.4939 0.136386 31.2323 0 29.698H0Z" fill="#505050"/>
<path d="M22.6741 28.5046L26.7998 29.7491C26.5782 30.7891 26.1179 31.7779 25.4871 32.6473C24.9075 33.4145 24.1403 34.0112 23.2708 34.4033C22.3843 34.7954 21.2591 35 19.8953 35C18.2416 35 16.8778 34.7613 15.8378 34.284C14.7808 33.8066 13.8773 32.9542 13.1101 31.7438C12.3429 30.5334 11.9679 28.982 11.9679 27.0896C11.9679 24.5665 12.6327 22.623 13.9796 21.2762C15.3264 19.9294 17.2187 19.2474 19.6737 19.2474C21.6001 19.2474 23.1004 19.6396 24.2085 20.4067C25.2996 21.1909 26.1179 22.3843 26.6634 23.9868L22.5037 24.9075C22.4014 24.5494 22.2479 24.1914 22.0434 23.8846C21.7876 23.5265 21.4637 23.2538 21.0716 23.0492C20.6795 22.8446 20.2363 22.7594 19.793 22.7594C18.719 22.7594 17.9006 23.1856 17.3381 24.055C16.9118 24.6858 16.6902 25.6917 16.6902 27.0555C16.6902 28.7433 16.9459 29.9026 17.4574 30.5334C17.9688 31.1642 18.6849 31.471 19.6225 31.471C20.5261 31.471 21.208 31.2153 21.6683 30.7209C22.1286 30.1924 22.4696 29.4593 22.6741 28.5046ZM32.3064 19.5032H37.0117V24.8393H42.1603V19.5032H46.8997V34.7443H42.1603V28.5728H37.0117V34.7443H32.3064V19.5032V19.5032Z" fill="#505050"/>
<path d="M46.2518 27.1237C46.2518 24.6347 46.9508 22.6912 48.3317 21.3103C49.7126 19.9294 51.6561 19.2304 54.1281 19.2304C56.6683 19.2304 58.6118 19.9123 59.9927 21.2762C61.3736 22.64 62.0555 24.5494 62.0555 27.0044C62.0555 28.7944 61.7487 30.2435 61.152 31.3858C60.5723 32.511 59.6688 33.4316 58.5606 34.0453C57.4184 34.6761 56.0034 35 54.3156 35C52.5938 35 51.1788 34.7272 50.0536 34.1817C48.8943 33.602 47.9396 32.6985 47.3088 31.5904C46.6098 30.397 46.2518 28.9138 46.2518 27.1237ZM50.9571 27.1408C50.9571 28.6751 51.247 29.7832 51.8096 30.4652C52.3721 31.1301 53.1564 31.471 54.1452 31.471C55.151 31.471 55.9352 31.1471 56.4978 30.4822C57.0604 29.8173 57.3332 28.641 57.3332 26.9362C57.3332 25.5041 57.0434 24.4471 56.4637 23.7993C55.8841 23.1344 55.0999 22.8105 54.1111 22.8105C53.2416 22.7764 52.4062 23.1515 51.8266 23.8164C51.247 24.4812 50.9571 25.5894 50.9571 27.1408V27.1408ZM66.8802 27.1237C66.8802 24.6347 67.5792 22.6912 68.9601 21.3103C70.341 19.9294 72.2845 19.2304 74.7565 19.2304C77.2966 19.2304 79.2572 19.9123 80.621 21.2762C81.9849 22.64 82.6839 24.5494 82.6839 27.0044C82.6839 28.7944 82.377 30.2435 81.7803 31.3858C81.2007 32.511 80.2971 33.4316 79.189 34.0453C78.0468 34.6761 76.6318 35 74.944 35C73.2221 35 71.8071 34.7272 70.6819 34.1817C69.5227 33.602 68.568 32.6985 67.9372 31.5904C67.2382 30.397 66.8802 28.9138 66.8802 27.1237V27.1237ZM71.5855 27.1408C71.5855 28.6751 71.8753 29.7832 72.4379 30.4652C73.0005 31.1301 73.7847 31.471 74.7735 31.471C75.7794 31.471 76.5636 31.1471 77.1262 30.4822C77.6888 29.8173 77.9615 28.641 77.9615 26.9362C77.9615 25.5041 77.6717 24.4471 77.0921 23.7993C76.5124 23.1344 75.7282 22.8105 74.7394 22.8105C73.87 22.7764 73.0175 23.1515 72.455 23.8164C71.8753 24.4812 71.5855 25.5894 71.5855 27.1408V27.1408Z" fill="#505050"/>
<path d="M82.1895 19.5032H86.8948V30.9937H94.2426V34.7443H82.1724V19.5032H82.1895Z" fill="#505050"/>
<path d="M77.0032 18.6236C81.7404 15.0537 83.2012 9.00215 80.266 5.10708C77.3307 1.21202 71.111 0.948416 66.3737 4.51831C61.6365 8.08821 60.1757 14.1398 63.1109 18.0348C66.0462 21.9299 72.2659 22.1935 77.0032 18.6236Z" fill="#F5F5F5"/>
<path d="M77.0032 18.6236C81.7404 15.0537 83.2012 9.00214 80.266 5.10708C77.3308 1.21201 71.111 0.948408 66.3737 4.51831C61.6365 8.0882 60.1757 14.1398 63.1109 18.0348C66.0462 21.9299 72.266 22.1935 77.0032 18.6236Z" stroke="#505050" stroke-miterlimit="10"/>
<path d="M66.8972 10.4506L68.6021 9.25718L70.699 12.2406C71.057 12.718 71.3298 13.2294 71.5343 13.792C71.6537 14.2182 71.6196 14.6785 71.4491 15.0877C71.2275 15.5991 70.8695 16.0253 70.3921 16.3322C69.8295 16.7243 69.3522 16.9459 68.943 17.0141C68.5509 17.0823 68.1417 17.0141 67.7667 16.8436C67.3575 16.6391 66.9995 16.3492 66.7267 15.9742L68.1929 14.6103C68.3122 14.7979 68.4657 14.9683 68.6361 15.1047C68.7555 15.19 68.8919 15.2411 69.0453 15.2411C69.1646 15.2411 69.284 15.19 69.3692 15.1218C69.5397 15.0195 69.659 14.8149 69.642 14.6103C69.5908 14.3205 69.4715 14.0307 69.284 13.8091L66.8972 10.4506V10.4506ZM72.0117 12.3429L73.5631 11.1154C73.7336 11.32 73.9552 11.4735 74.1939 11.5587C74.5348 11.661 74.8928 11.5928 75.1827 11.3712C75.3872 11.2348 75.5577 11.0472 75.6259 10.8086C75.7282 10.5017 75.5577 10.1607 75.2509 10.0584C75.1997 10.0414 75.1486 10.0244 75.0974 10.0244C74.8928 10.0073 74.5348 10.0925 74.0063 10.3142C73.1369 10.6722 72.4549 10.8086 71.9435 10.7574C71.4491 10.7063 70.9888 10.4506 70.716 10.0244C70.5114 9.73453 70.4092 9.39357 70.3921 9.0526C70.3921 8.66049 70.4944 8.26838 70.716 7.94447C71.0399 7.48417 71.4321 7.09206 71.9094 6.78519C72.6254 6.29079 73.2562 6.05212 73.8018 6.05212C74.3473 6.05212 74.8587 6.30784 75.3361 6.83633L73.8018 8.04676C73.4949 7.65465 72.9153 7.56941 72.5231 7.87628L72.472 7.92742C72.3015 8.02971 72.1822 8.18314 72.114 8.37067C72.0628 8.50706 72.0969 8.66049 72.1822 8.77983C72.2504 8.86507 72.3527 8.93327 72.472 8.93327C72.6084 8.95031 72.8471 8.88212 73.188 8.72869C74.0404 8.37067 74.6883 8.1661 75.1315 8.0979C75.5066 8.02971 75.8987 8.06381 76.2567 8.21724C76.5806 8.35363 76.8534 8.5923 77.0409 8.88212C77.2796 9.22309 77.416 9.63224 77.433 10.0584C77.4501 10.5017 77.3307 10.9279 77.0921 11.303C76.7852 11.7633 76.3931 12.1554 75.9328 12.4622C74.9951 13.1101 74.228 13.3829 73.6142 13.2806C72.9493 13.1783 72.4038 12.8373 72.0117 12.3429V12.3429Z" fill="#505050"/>
</g>
<defs>
<clipPath id="clip0_4_3">
<rect width="94.2426" height="35" fill="white"/>
</clipPath>
</defs>
</svg>
